<svg width="19" height="24" viewBox="0 0 19 24" fill="none" xmlns="http://www.w3.org/2000/svg">
<path d="M17.375 23.4999H1.625C1.00368 23.4999 0.5 22.9403 0.5 22.2499V10.1962C0.517428 9.88988 0.634594 9.60107 0.829625 9.3837L8.70463 0.633698C8.91564 0.398977 9.20198 0.26709 9.50056 0.26709C9.79915 0.26709 10.0855 0.398977 10.2965 0.633698L18.1715 9.3837C18.3827 9.6178 18.501 9.93597 18.5 10.2674V22.2499C18.5 22.9403 17.9963 23.4999 17.375 23.4999ZM9.5 3.28495L2.75 10.7849V20.9999H16.25V10.7849L9.5 3.28495ZM9.5 18.4987C9.266 18.2674 9.00163 18.0262 8.7215 17.7712L8.66862 17.7237C7.367 16.5437 5.74363 15.0749 5.74363 13.2487C5.7438 12.6436 5.96329 12.0641 6.35256 11.641C6.74183 11.2179 7.26807 10.9868 7.8125 10.9999C8.45622 10.998 9.07011 11.3013 9.5 11.8337C9.92998 11.3015 10.5438 10.9982 11.1875 10.9999C11.7314 10.9882 12.2566 11.2201 12.6449 11.6433C13.0332 12.0665 13.252 12.6456 13.2519 13.2499C13.2519 15.0824 11.6184 16.5612 10.3066 17.7499L10.2425 17.8087C9.97587 18.0512 9.72388 18.2799 9.49887 18.5012L9.5 18.4987Z" fill="#2E3A59"/>
</svg>
