<svg width="25" height="25" viewBox="0 0 25 25" fill="none" xmlns="http://www.w3.org/2000/svg">
<path d="M15.6921 2.02668C15.7337 1.9329 15.7934 1.84824 15.8678 1.77754C15.9422 1.70684 16.0297 1.65149 16.1255 1.61463C16.2213 1.57778 16.3234 1.56015 16.4259 1.56275C16.5285 1.56536 16.6296 1.58814 16.7233 1.62981C16.9046 1.71106 19.814 3.09699 21.7655 6.36418C22.7515 8.02043 23.1671 9.71574 23.3374 11.0095C23.4347 11.7516 23.4687 12.5007 23.439 13.2486V13.2892V13.2829C23.439 13.4901 23.3567 13.6888 23.2101 13.8354C23.0636 13.9819 22.8649 14.0642 22.6577 14.0642C22.4505 14.0642 22.2518 13.9819 22.1053 13.8354C21.9588 13.6888 21.8765 13.4901 21.8765 13.2829V13.2048C21.8999 12.6689 22.0171 9.83606 20.4233 7.16574C19.465 5.57535 18.1285 4.24639 16.5327 3.29699C16.2655 3.14074 16.1015 3.06262 16.089 3.05793C15.9952 3.01629 15.9105 2.95658 15.8398 2.88221C15.7691 2.80784 15.7138 2.72028 15.6769 2.62452C15.6401 2.52875 15.6224 2.42667 15.625 2.32409C15.6276 2.22151 15.6504 2.12045 15.6921 2.02668Z" fill="#FB2D77"/>
<path d="M15.7733 5.79729C15.8948 5.6295 16.0779 5.51681 16.2824 5.48399C16.4869 5.45118 16.6961 5.50092 16.864 5.62229C16.8593 5.61916 17.2327 5.85354 17.6765 6.26291C18.1249 6.67229 18.6765 7.28322 19.1171 8.10197C19.597 8.99983 19.8809 9.98935 19.9499 11.0051C19.9562 11.0988 19.9577 11.1723 19.9593 11.2301V11.3285C19.9593 11.5357 19.877 11.7345 19.7305 11.881C19.584 12.0275 19.3852 12.1098 19.178 12.1098C18.9708 12.1098 18.7721 12.0275 18.6256 11.881C18.4791 11.7345 18.3968 11.5357 18.3968 11.3285V11.3238C18.3797 10.4412 18.1478 9.57598 17.7212 8.80307C17.2946 8.03016 16.6861 7.37282 15.9483 6.88791C15.7806 6.76646 15.6679 6.58335 15.6351 6.37883C15.6022 6.17431 15.652 5.96514 15.7733 5.79729Z" fill="#FB2D77"/>
<path d="M3.96403 16.7303C3.16689 15.2969 2.96513 13.6076 3.40228 12.0268C3.83943 10.446 4.88045 9.10039 6.30078 8.28022C7.72112 7.46005 9.40693 7.23105 10.9946 7.64263C12.5822 8.05421 13.9445 9.07338 14.7875 10.4803L16.0687 12.699L19.0468 14.8662C19.152 14.9428 19.2364 15.0444 19.2923 15.1619C19.3482 15.2793 19.3739 15.4089 19.3671 15.5388C19.3603 15.6687 19.3211 15.7948 19.2532 15.9058C19.1853 16.0167 19.0907 16.1089 18.9781 16.174L15.025 18.4553L15.0312 18.46L10.7531 20.9287V20.924L6.79997 23.2053C6.68725 23.2706 6.55999 23.3068 6.42975 23.3104C6.29951 23.314 6.17045 23.2849 6.05429 23.2259C5.93813 23.1669 5.83858 23.0798 5.76469 22.9725C5.6908 22.8652 5.64491 22.7411 5.63122 22.6115L5.24528 18.9506L3.96403 16.7303Z" fill="#FB2D77"/>
<path d="M16.0156 19.6956L11.3312 22.3987C11.7391 22.9112 12.3173 23.2603 12.9608 23.3825C13.6043 23.5047 14.2702 23.3918 14.8375 23.0644C15.4048 22.7371 15.8358 22.217 16.052 21.5987C16.2682 20.9804 16.2553 20.3051 16.0156 19.6956Z" fill="#FB2D77"/>
</svg>
