<svg width="21" height="21" viewBox="0 0 21 21" fill="none" xmlns="http://www.w3.org/2000/svg">
<path fill-rule="evenodd" clip-rule="evenodd" d="M19.6875 10.5C19.6875 10.6741 19.6184 10.841 19.4953 10.9641C19.3722 11.0871 19.2053 11.1563 19.0312 11.1563L3.55294 11.1563L7.68337 15.2854C7.8066 15.4086 7.87583 15.5758 7.87583 15.75C7.87583 15.9243 7.8066 16.0914 7.68337 16.2147C7.56015 16.3379 7.39302 16.4071 7.21875 16.4071C7.04448 16.4071 6.87735 16.3379 6.75412 16.2147L1.50412 10.9647C1.44301 10.9037 1.39452 10.8313 1.36144 10.7516C1.32836 10.6718 1.31133 10.5864 1.31133 10.5C1.31133 10.4137 1.32836 10.3282 1.36144 10.2485C1.39452 10.1688 1.44301 10.0964 1.50412 10.0354L6.75412 4.78541C6.87735 4.66218 7.04448 4.59296 7.21875 4.59296C7.39302 4.59296 7.56015 4.66218 7.68338 4.78541C7.8066 4.90864 7.87583 5.07577 7.87583 5.25003C7.87583 5.4243 7.8066 5.59143 7.68338 5.71466L3.55294 9.84378L19.0312 9.84379C19.2053 9.84379 19.3722 9.91293 19.4953 10.036C19.6184 10.1591 19.6875 10.326 19.6875 10.5V10.5Z" fill="black"/>
</svg>
