<svg xmlns="http://www.w3.org/2000/svg" width="100%" height="100%" viewBox="0 0 953 428" fill="none">
<line x1="212.5" y1="-2.18557e-08" x2="212.5" y2="428" stroke="#E6909A"/>
<line x1="185.5" y1="-2.18557e-08" x2="185.5" y2="428" stroke="#E6909A"/>
<line x1="158.5" y1="-2.18557e-08" x2="158.5" y2="428" stroke="#E6909A"/>
<line x1="131.5" y1="-2.18557e-08" x2="131.5" y2="428" stroke="#E6909A"/>
<line x1="104.5" y1="-2.18557e-08" x2="104.5" y2="428" stroke="#E6909A"/>
<line x1="77.5" y1="-2.18557e-08" x2="77.5" y2="428" stroke="#E6909A"/>
<line x1="50.5" y1="-2.18557e-08" x2="50.5" y2="428" stroke="#E6909A"/>
<line x1="23.5" y1="-2.18557e-08" x2="23.5" y2="428" stroke="#E6909A"/>
<line x1="239.5" y1="-2.18557e-08" x2="239.5" y2="428" stroke="#E6909A"/>
<line x1="266.5" y1="-2.18557e-08" x2="266.5" y2="428" stroke="#E6909A"/>
<line x1="293.5" y1="-2.18557e-08" x2="293.5" y2="428" stroke="#E6909A"/>
<line x1="320.5" y1="-2.18557e-08" x2="320.5" y2="428" stroke="#E6909A"/>
<line x1="347.5" y1="-2.18557e-08" x2="347.5" y2="428" stroke="#E6909A"/>
<line x1="374.5" y1="-2.18557e-08" x2="374.5" y2="428" stroke="#E6909A"/>
<line x1="401.5" y1="-2.18557e-08" x2="401.5" y2="428" stroke="#E6909A"/>
<line x1="428.5" y1="-2.18557e-08" x2="428.5" y2="428" stroke="#E6909A"/>
<line x1="455.5" y1="-2.18557e-08" x2="455.5" y2="428" stroke="#E6909A"/>
<line x1="482.5" y1="-2.18557e-08" x2="482.5" y2="428" stroke="#E6909A"/>
<line x1="509.5" y1="-2.18557e-08" x2="509.5" y2="428" stroke="#E6909A"/>
<line x1="536.5" y1="-2.18557e-08" x2="536.5" y2="428" stroke="#E6909A"/>
<line x1="563.5" y1="-2.18557e-08" x2="563.5" y2="428" stroke="#E6909A"/>
<line x1="590.5" y1="-2.18557e-08" x2="590.5" y2="428" stroke="#E6909A"/>
<line x1="617.5" y1="-2.18557e-08" x2="617.5" y2="428" stroke="#E6909A"/>
<line x1="644.5" y1="-2.18557e-08" x2="644.5" y2="428" stroke="#E6909A"/>
<line x1="671.5" y1="-2.18557e-08" x2="671.5" y2="428" stroke="#E6909A"/>
<line x1="698.5" y1="-2.18557e-08" x2="698.5" y2="428" stroke="#E6909A"/>
<line x1="725.5" y1="-2.18557e-08" x2="725.5" y2="428" stroke="#E6909A"/>
<line x1="752.5" y1="-2.18557e-08" x2="752.5" y2="428" stroke="#E6909A"/>
<line x1="779.5" y1="-2.18557e-08" x2="779.5" y2="428" stroke="#E6909A"/>
<line x1="806.5" y1="-2.18557e-08" x2="806.5" y2="428" stroke="#E6909A"/>
<line x1="833.5" y1="-2.18557e-08" x2="833.5" y2="428" stroke="#E6909A"/>
<line x1="860.5" y1="-2.18557e-08" x2="860.5" y2="428" stroke="#E6909A"/>
<line x1="887.5" y1="-2.18557e-08" x2="887.5" y2="428" stroke="#E6909A"/>
<line x1="914.5" y1="-2.18557e-08" x2="914.5" y2="428" stroke="#E6909A"/>
<line x1="941.5" y1="-2.18557e-08" x2="941.5" y2="428" stroke="#E6909A"/>
<line x1="3" y1="249.5" x2="952" y2="249.5" stroke="#E6909A"/>
<line x1="3" y1="276.5" x2="952" y2="276.5" stroke="#E6909A"/>
<line x1="3" y1="303.5" x2="952" y2="303.5" stroke="#E6909A"/>
<line x1="3" y1="330.5" x2="952" y2="330.5" stroke="#E6909A"/>
<line x1="3" y1="357.5" x2="952" y2="357.5" stroke="#E6909A"/>
<line x1="3" y1="384.5" x2="952" y2="384.5" stroke="#E6909A"/>
<line x1="3" y1="411.5" x2="952" y2="411.5" stroke="#E6909A"/>
<line x1="3" y1="222.5" x2="952" y2="222.5" stroke="#E6909A"/>
<line x1="3" y1="195.5" x2="952" y2="195.5" stroke="#E6909A"/>
<line x1="3" y1="168.5" x2="952" y2="168.5" stroke="#E6909A"/>
<line x1="3" y1="141.5" x2="952" y2="141.5" stroke="#E6909A"/>
<line x1="3" y1="114.5" x2="952" y2="114.5" stroke="#E6909A"/>
<line x1="3" y1="87.5" x2="952" y2="87.5" stroke="#E6909A"/>
<line x1="3" y1="60.5" x2="952" y2="60.5" stroke="#E6909A"/>
<line x1="3" y1="33.5" x2="952" y2="33.5" stroke="#E6909A"/>
<line x1="3" y1="6.5" x2="952" y2="6.5" stroke="#E6909A"/>
<line opacity="0.3" x1="191.5" y1="2.18557e-08" x2="191.5" y2="428" stroke="#E6909A"/>
<line opacity="0.3" x1="164.5" y1="2.18557e-08" x2="164.5" y2="428" stroke="#E6909A"/>
<line opacity="0.3" x1="137.5" y1="2.18557e-08" x2="137.5" y2="428" stroke="#E6909A"/>
<line opacity="0.3" x1="110.5" y1="2.18557e-08" x2="110.5" y2="428" stroke="#E6909A"/>
<line opacity="0.3" x1="83.5" y1="2.18557e-08" x2="83.5" y2="428" stroke="#E6909A"/>
<line opacity="0.3" x1="56.5" y1="2.18557e-08" x2="56.5" y2="428" stroke="#E6909A"/>
<line opacity="0.3" x1="29.5" y1="2.18557e-08" x2="29.5" y2="428" stroke="#E6909A"/>
<line opacity="0.3" x1="2.5" y1="2.18557e-08" x2="2.49998" y2="428" stroke="#E6909A"/>
<line opacity="0.3" x1="218.5" y1="2.18557e-08" x2="218.5" y2="428" stroke="#E6909A"/>
<line opacity="0.3" x1="245.5" y1="2.18557e-08" x2="245.5" y2="428" stroke="#E6909A"/>
<line opacity="0.3" x1="272.5" y1="2.18557e-08" x2="272.5" y2="428" stroke="#E6909A"/>
<line opacity="0.3" x1="299.5" y1="2.18557e-08" x2="299.5" y2="428" stroke="#E6909A"/>
<line opacity="0.3" x1="326.5" y1="2.18557e-08" x2="326.5" y2="428" stroke="#E6909A"/>
<line opacity="0.3" x1="353.5" y1="2.18557e-08" x2="353.5" y2="428" stroke="#E6909A"/>
<line opacity="0.3" x1="380.5" y1="2.18557e-08" x2="380.5" y2="428" stroke="#E6909A"/>
<line opacity="0.3" x1="407.5" y1="2.18557e-08" x2="407.5" y2="428" stroke="#E6909A"/>
<line opacity="0.3" x1="434.5" y1="2.18557e-08" x2="434.5" y2="428" stroke="#E6909A"/>
<line opacity="0.3" x1="461.5" y1="2.18557e-08" x2="461.5" y2="428" stroke="#E6909A"/>
<line opacity="0.3" x1="488.5" y1="2.18557e-08" x2="488.5" y2="428" stroke="#E6909A"/>
<line opacity="0.3" x1="515.5" y1="2.18557e-08" x2="515.5" y2="428" stroke="#E6909A"/>
<line opacity="0.3" x1="542.5" y1="2.18557e-08" x2="542.5" y2="428" stroke="#E6909A"/>
<line opacity="0.3" x1="569.5" y1="2.18557e-08" x2="569.5" y2="428" stroke="#E6909A"/>
<line opacity="0.3" x1="596.5" y1="2.18557e-08" x2="596.5" y2="428" stroke="#E6909A"/>
<line opacity="0.3" x1="623.5" y1="2.18557e-08" x2="623.5" y2="428" stroke="#E6909A"/>
<line opacity="0.3" x1="650.5" y1="2.18557e-08" x2="650.5" y2="428" stroke="#E6909A"/>
<line opacity="0.3" x1="677.5" y1="2.18557e-08" x2="677.5" y2="428" stroke="#E6909A"/>
<line opacity="0.3" x1="704.5" y1="2.18557e-08" x2="704.5" y2="428" stroke="#E6909A"/>
<line opacity="0.3" x1="731.5" y1="2.18557e-08" x2="731.5" y2="428" stroke="#E6909A"/>
<line opacity="0.3" x1="758.5" y1="2.18557e-08" x2="758.5" y2="428" stroke="#E6909A"/>
<line opacity="0.3" x1="785.5" y1="2.18557e-08" x2="785.5" y2="428" stroke="#E6909A"/>
<line opacity="0.3" x1="812.5" y1="2.18557e-08" x2="812.5" y2="428" stroke="#E6909A"/>
<line opacity="0.3" x1="839.5" y1="2.18557e-08" x2="839.5" y2="428" stroke="#E6909A"/>
<line opacity="0.3" x1="866.5" y1="2.18557e-08" x2="866.5" y2="428" stroke="#E6909A"/>
<line opacity="0.3" x1="893.5" y1="2.18557e-08" x2="893.5" y2="428" stroke="#E6909A"/>
<line opacity="0.3" x1="920.5" y1="2.18557e-08" x2="920.5" y2="428" stroke="#E6909A"/>
<line opacity="0.3" x1="947.5" y1="2.18557e-08" x2="947.5" y2="428" stroke="#E6909A"/>
<line opacity="0.3" x1="196.5" y1="1.92845e-08" x2="196.5" y2="428" stroke="#E6909A"/>
<line opacity="0.3" x1="169.5" y1="1.92845e-08" x2="169.5" y2="428" stroke="#E6909A"/>
<line opacity="0.3" x1="142.5" y1="1.92845e-08" x2="142.5" y2="428" stroke="#E6909A"/>
<line opacity="0.3" x1="115.5" y1="1.92845e-08" x2="115.5" y2="428" stroke="#E6909A"/>
<line opacity="0.3" x1="88.5" y1="1.92845e-08" x2="88.5" y2="428" stroke="#E6909A"/>
<line opacity="0.3" x1="61.5" y1="1.92845e-08" x2="61.5" y2="428" stroke="#E6909A"/>
<line opacity="0.3" x1="34.5" y1="1.92845e-08" x2="34.5" y2="428" stroke="#E6909A"/>
<line opacity="0.3" x1="7.5" y1="1.92845e-08" x2="7.49998" y2="428" stroke="#E6909A"/>
<line opacity="0.3" x1="223.5" y1="1.92845e-08" x2="223.5" y2="428" stroke="#E6909A"/>
<line opacity="0.3" x1="250.5" y1="1.92845e-08" x2="250.5" y2="428" stroke="#E6909A"/>
<line opacity="0.3" x1="277.5" y1="1.92845e-08" x2="277.5" y2="428" stroke="#E6909A"/>
<line opacity="0.3" x1="304.5" y1="1.92845e-08" x2="304.5" y2="428" stroke="#E6909A"/>
<line opacity="0.3" x1="331.5" y1="1.92845e-08" x2="331.5" y2="428" stroke="#E6909A"/>
<line opacity="0.3" x1="358.5" y1="1.92845e-08" x2="358.5" y2="428" stroke="#E6909A"/>
<line opacity="0.3" x1="385.5" y1="1.92845e-08" x2="385.5" y2="428" stroke="#E6909A"/>
<line opacity="0.3" x1="412.5" y1="1.92845e-08" x2="412.5" y2="428" stroke="#E6909A"/>
<line opacity="0.3" x1="439.5" y1="1.92845e-08" x2="439.5" y2="428" stroke="#E6909A"/>
<line opacity="0.3" x1="466.5" y1="1.92845e-08" x2="466.5" y2="428" stroke="#E6909A"/>
<line opacity="0.3" x1="493.5" y1="1.92845e-08" x2="493.5" y2="428" stroke="#E6909A"/>
<line opacity="0.3" x1="520.5" y1="1.92845e-08" x2="520.5" y2="428" stroke="#E6909A"/>
<line opacity="0.3" x1="547.5" y1="1.92845e-08" x2="547.5" y2="428" stroke="#E6909A"/>
<line opacity="0.3" x1="574.5" y1="1.92845e-08" x2="574.5" y2="428" stroke="#E6909A"/>
<line opacity="0.3" x1="601.5" y1="1.92845e-08" x2="601.5" y2="428" stroke="#E6909A"/>
<line opacity="0.3" x1="628.5" y1="1.92845e-08" x2="628.5" y2="428" stroke="#E6909A"/>
<line opacity="0.3" x1="655.5" y1="1.92845e-08" x2="655.5" y2="428" stroke="#E6909A"/>
<line opacity="0.3" x1="682.5" y1="1.92845e-08" x2="682.5" y2="428" stroke="#E6909A"/>
<line opacity="0.3" x1="709.5" y1="1.92845e-08" x2="709.5" y2="428" stroke="#E6909A"/>
<line opacity="0.3" x1="736.5" y1="1.92845e-08" x2="736.5" y2="428" stroke="#E6909A"/>
<line opacity="0.3" x1="763.5" y1="1.92845e-08" x2="763.5" y2="428" stroke="#E6909A"/>
<line opacity="0.3" x1="790.5" y1="1.92845e-08" x2="790.5" y2="428" stroke="#E6909A"/>
<line opacity="0.3" x1="817.5" y1="1.92845e-08" x2="817.5" y2="428" stroke="#E6909A"/>
<line opacity="0.3" x1="844.5" y1="1.92845e-08" x2="844.5" y2="428" stroke="#E6909A"/>
<line opacity="0.3" x1="871.5" y1="1.92845e-08" x2="871.5" y2="428" stroke="#E6909A"/>
<line opacity="0.3" x1="898.5" y1="1.92845e-08" x2="898.5" y2="428" stroke="#E6909A"/>
<line opacity="0.3" x1="925.5" y1="1.92845e-08" x2="925.5" y2="428" stroke="#E6909A"/>
<line opacity="0.3" x1="952.5" y1="1.92845e-08" x2="952.5" y2="428" stroke="#E6909A"/>
<line opacity="0.3" x1="201.5" y1="2.04897e-08" x2="201.5" y2="428" stroke="#E6909A"/>
<line opacity="0.3" x1="174.5" y1="2.04897e-08" x2="174.5" y2="428" stroke="#E6909A"/>
<line opacity="0.3" x1="147.5" y1="2.04897e-08" x2="147.5" y2="428" stroke="#E6909A"/>
<line opacity="0.3" x1="120.5" y1="2.04897e-08" x2="120.5" y2="428" stroke="#E6909A"/>
<line opacity="0.3" x1="93.5" y1="2.04897e-08" x2="93.5" y2="428" stroke="#E6909A"/>
<line opacity="0.3" x1="66.5" y1="2.04897e-08" x2="66.5" y2="428" stroke="#E6909A"/>
<line opacity="0.3" x1="39.5" y1="2.04897e-08" x2="39.5" y2="428" stroke="#E6909A"/>
<line opacity="0.3" x1="12.5" y1="2.04897e-08" x2="12.5" y2="428" stroke="#E6909A"/>
<line opacity="0.3" x1="228.5" y1="2.04897e-08" x2="228.5" y2="428" stroke="#E6909A"/>
<line opacity="0.3" x1="255.5" y1="2.04897e-08" x2="255.5" y2="428" stroke="#E6909A"/>
<line opacity="0.3" x1="282.5" y1="2.04897e-08" x2="282.5" y2="428" stroke="#E6909A"/>
<line opacity="0.3" x1="309.5" y1="2.04897e-08" x2="309.5" y2="428" stroke="#E6909A"/>
<line opacity="0.3" x1="336.5" y1="2.04897e-08" x2="336.5" y2="428" stroke="#E6909A"/>
<line opacity="0.3" x1="363.5" y1="2.04897e-08" x2="363.5" y2="428" stroke="#E6909A"/>
<line opacity="0.3" x1="390.5" y1="2.04897e-08" x2="390.5" y2="428" stroke="#E6909A"/>
<line opacity="0.3" x1="417.5" y1="2.04897e-08" x2="417.5" y2="428" stroke="#E6909A"/>
<line opacity="0.3" x1="444.5" y1="2.04897e-08" x2="444.5" y2="428" stroke="#E6909A"/>
<line opacity="0.3" x1="471.5" y1="2.04897e-08" x2="471.5" y2="428" stroke="#E6909A"/>
<line opacity="0.3" x1="498.5" y1="2.04897e-08" x2="498.5" y2="428" stroke="#E6909A"/>
<line opacity="0.3" x1="525.5" y1="2.04897e-08" x2="525.5" y2="428" stroke="#E6909A"/>
<line opacity="0.3" x1="552.5" y1="2.04897e-08" x2="552.5" y2="428" stroke="#E6909A"/>
<line opacity="0.3" x1="579.5" y1="2.04897e-08" x2="579.5" y2="428" stroke="#E6909A"/>
<line opacity="0.3" x1="606.5" y1="2.04897e-08" x2="606.5" y2="428" stroke="#E6909A"/>
<line opacity="0.3" x1="633.5" y1="2.04897e-08" x2="633.5" y2="428" stroke="#E6909A"/>
<line opacity="0.3" x1="660.5" y1="2.04897e-08" x2="660.5" y2="428" stroke="#E6909A"/>
<line opacity="0.3" x1="687.5" y1="2.04897e-08" x2="687.5" y2="428" stroke="#E6909A"/>
<line opacity="0.3" x1="714.5" y1="2.04897e-08" x2="714.5" y2="428" stroke="#E6909A"/>
<line opacity="0.3" x1="741.5" y1="2.04897e-08" x2="741.5" y2="428" stroke="#E6909A"/>
<line opacity="0.3" x1="768.5" y1="2.04897e-08" x2="768.5" y2="428" stroke="#E6909A"/>
<line opacity="0.3" x1="795.5" y1="2.04897e-08" x2="795.5" y2="428" stroke="#E6909A"/>
<line opacity="0.3" x1="822.5" y1="2.04897e-08" x2="822.5" y2="428" stroke="#E6909A"/>
<line opacity="0.3" x1="849.5" y1="2.04897e-08" x2="849.5" y2="428" stroke="#E6909A"/>
<line opacity="0.3" x1="876.5" y1="2.04897e-08" x2="876.5" y2="428" stroke="#E6909A"/>
<line opacity="0.3" x1="903.5" y1="2.04897e-08" x2="903.5" y2="428" stroke="#E6909A"/>
<line opacity="0.3" x1="930.5" y1="2.04897e-08" x2="930.5" y2="428" stroke="#E6909A"/>
<line opacity="0.3" x1="207.5" y1="1.92845e-08" x2="207.5" y2="428" stroke="#E6909A"/>
<line opacity="0.3" x1="180.5" y1="1.92845e-08" x2="180.5" y2="428" stroke="#E6909A"/>
<line opacity="0.3" x1="153.5" y1="1.92845e-08" x2="153.5" y2="428" stroke="#E6909A"/>
<line opacity="0.3" x1="126.5" y1="1.92845e-08" x2="126.5" y2="428" stroke="#E6909A"/>
<line opacity="0.3" x1="99.5" y1="1.92845e-08" x2="99.5" y2="428" stroke="#E6909A"/>
<line opacity="0.3" x1="72.5" y1="1.92845e-08" x2="72.5" y2="428" stroke="#E6909A"/>
<line opacity="0.3" x1="45.5" y1="1.92845e-08" x2="45.5" y2="428" stroke="#E6909A"/>
<line opacity="0.3" x1="18.5" y1="1.92845e-08" x2="18.5" y2="428" stroke="#E6909A"/>
<line opacity="0.3" x1="234.5" y1="1.92845e-08" x2="234.5" y2="428" stroke="#E6909A"/>
<line opacity="0.3" x1="261.5" y1="1.92845e-08" x2="261.5" y2="428" stroke="#E6909A"/>
<line opacity="0.3" x1="288.5" y1="1.92845e-08" x2="288.5" y2="428" stroke="#E6909A"/>
<line opacity="0.3" x1="315.5" y1="1.92845e-08" x2="315.5" y2="428" stroke="#E6909A"/>
<line opacity="0.3" x1="342.5" y1="1.92845e-08" x2="342.5" y2="428" stroke="#E6909A"/>
<line opacity="0.3" x1="369.5" y1="1.92845e-08" x2="369.5" y2="428" stroke="#E6909A"/>
<line opacity="0.3" x1="396.5" y1="1.92845e-08" x2="396.5" y2="428" stroke="#E6909A"/>
<line opacity="0.3" x1="423.5" y1="1.92845e-08" x2="423.5" y2="428" stroke="#E6909A"/>
<line opacity="0.3" x1="450.5" y1="1.92845e-08" x2="450.5" y2="428" stroke="#E6909A"/>
<line opacity="0.3" x1="477.5" y1="1.92845e-08" x2="477.5" y2="428" stroke="#E6909A"/>
<line opacity="0.3" x1="504.5" y1="1.92845e-08" x2="504.5" y2="428" stroke="#E6909A"/>
<line opacity="0.3" x1="531.5" y1="1.92845e-08" x2="531.5" y2="428" stroke="#E6909A"/>
<line opacity="0.3" x1="558.5" y1="1.92845e-08" x2="558.5" y2="428" stroke="#E6909A"/>
<line opacity="0.3" x1="585.5" y1="1.92845e-08" x2="585.5" y2="428" stroke="#E6909A"/>
<line opacity="0.3" x1="612.5" y1="1.92845e-08" x2="612.5" y2="428" stroke="#E6909A"/>
<line opacity="0.3" x1="639.5" y1="1.92845e-08" x2="639.5" y2="428" stroke="#E6909A"/>
<line opacity="0.3" x1="666.5" y1="1.92845e-08" x2="666.5" y2="428" stroke="#E6909A"/>
<line opacity="0.3" x1="693.5" y1="1.92845e-08" x2="693.5" y2="428" stroke="#E6909A"/>
<line opacity="0.3" x1="720.5" y1="1.92845e-08" x2="720.5" y2="428" stroke="#E6909A"/>
<line opacity="0.3" x1="747.5" y1="1.92845e-08" x2="747.5" y2="428" stroke="#E6909A"/>
<line opacity="0.3" x1="774.5" y1="1.92845e-08" x2="774.5" y2="428" stroke="#E6909A"/>
<line opacity="0.3" x1="801.5" y1="1.92845e-08" x2="801.5" y2="428" stroke="#E6909A"/>
<line opacity="0.3" x1="828.5" y1="1.92845e-08" x2="828.5" y2="428" stroke="#E6909A"/>
<line opacity="0.3" x1="855.5" y1="1.92845e-08" x2="855.5" y2="428" stroke="#E6909A"/>
<line opacity="0.3" x1="882.5" y1="1.92845e-08" x2="882.5" y2="428" stroke="#E6909A"/>
<line opacity="0.3" x1="909.5" y1="1.92845e-08" x2="909.5" y2="428" stroke="#E6909A"/>
<line opacity="0.3" x1="936.5" y1="1.92845e-08" x2="936.5" y2="428" stroke="#E6909A"/>
<line opacity="0.3" y1="405.5" x2="952" y2="405.5" stroke="#E6909A"/>
<line opacity="0.3" y1="378.5" x2="952" y2="378.5" stroke="#E6909A"/>
<line opacity="0.3" y1="351.5" x2="952" y2="351.5" stroke="#E6909A"/>
<line opacity="0.3" y1="324.5" x2="952" y2="324.5" stroke="#E6909A"/>
<line opacity="0.3" y1="297.5" x2="952" y2="297.5" stroke="#E6909A"/>
<line opacity="0.3" y1="270.5" x2="952" y2="270.5" stroke="#E6909A"/>
<line opacity="0.3" y1="243.5" x2="952" y2="243.5" stroke="#E6909A"/>
<line opacity="0.3" y1="216.5" x2="952" y2="216.5" stroke="#E6909A"/>
<line opacity="0.3" y1="189.5" x2="952" y2="189.5" stroke="#E6909A"/>
<line opacity="0.3" y1="162.5" x2="952" y2="162.5" stroke="#E6909A"/>
<line opacity="0.3" y1="135.5" x2="952" y2="135.5" stroke="#E6909A"/>
<line opacity="0.3" y1="108.5" x2="952" y2="108.5" stroke="#E6909A"/>
<line opacity="0.3" y1="81.5" x2="952" y2="81.5" stroke="#E6909A"/>
<line opacity="0.3" y1="54.5" x2="952" y2="54.5" stroke="#E6909A"/>
<line opacity="0.3" y1="27.5" x2="952" y2="27.5" stroke="#E6909A"/>
<line opacity="0.3" x1="-2.57123e-09" y1="427.5" x2="952" y2="427.5" stroke="#E6909A"/>
<line opacity="0.3" x1="-2.57123e-09" y1="400.5" x2="952" y2="400.5" stroke="#E6909A"/>
<line opacity="0.3" x1="-2.57123e-09" y1="373.5" x2="952" y2="373.5" stroke="#E6909A"/>
<line opacity="0.3" x1="-2.57123e-09" y1="346.5" x2="952" y2="346.5" stroke="#E6909A"/>
<line opacity="0.3" x1="-2.57123e-09" y1="319.5" x2="952" y2="319.5" stroke="#E6909A"/>
<line opacity="0.3" x1="-2.57123e-09" y1="292.5" x2="952" y2="292.5" stroke="#E6909A"/>
<line opacity="0.3" x1="-2.57123e-09" y1="265.5" x2="952" y2="265.5" stroke="#E6909A"/>
<line opacity="0.3" x1="-2.57123e-09" y1="238.5" x2="952" y2="238.5" stroke="#E6909A"/>
<line opacity="0.3" x1="-2.57123e-09" y1="211.5" x2="952" y2="211.5" stroke="#E6909A"/>
<line opacity="0.3" x1="-2.57123e-09" y1="184.5" x2="952" y2="184.5" stroke="#E6909A"/>
<line opacity="0.3" x1="-2.57123e-09" y1="157.5" x2="952" y2="157.5" stroke="#E6909A"/>
<line opacity="0.3" x1="-2.57123e-09" y1="130.5" x2="952" y2="130.5" stroke="#E6909A"/>
<line opacity="0.3" x1="-2.57123e-09" y1="103.5" x2="952" y2="103.5" stroke="#E6909A"/>
<line opacity="0.3" x1="-2.57123e-09" y1="76.5" x2="952" y2="76.5" stroke="#E6909A"/>
<line opacity="0.3" x1="-2.57123e-09" y1="49.5" x2="952" y2="49.5" stroke="#E6909A"/>
<line opacity="0.3" x1="-2.57123e-09" y1="22.5" x2="952" y2="22.5" stroke="#E6909A"/>
<line opacity="0.3" x1="-1.36595e-09" y1="422.5" x2="952" y2="422.5" stroke="#E6909A"/>
<line opacity="0.3" x1="-1.36595e-09" y1="395.5" x2="952" y2="395.5" stroke="#E6909A"/>
<line opacity="0.3" x1="-1.36595e-09" y1="368.5" x2="952" y2="368.5" stroke="#E6909A"/>
<line opacity="0.3" x1="-1.36595e-09" y1="341.5" x2="952" y2="341.5" stroke="#E6909A"/>
<line opacity="0.3" x1="-1.36595e-09" y1="314.5" x2="952" y2="314.5" stroke="#E6909A"/>
<line opacity="0.3" x1="-1.36595e-09" y1="287.5" x2="952" y2="287.5" stroke="#E6909A"/>
<line opacity="0.3" x1="-1.36595e-09" y1="260.5" x2="952" y2="260.5" stroke="#E6909A"/>
<line opacity="0.3" x1="-1.36595e-09" y1="233.5" x2="952" y2="233.5" stroke="#E6909A"/>
<line opacity="0.3" x1="-1.36595e-09" y1="206.5" x2="952" y2="206.5" stroke="#E6909A"/>
<line opacity="0.3" x1="-1.36595e-09" y1="179.5" x2="952" y2="179.5" stroke="#E6909A"/>
<line opacity="0.3" x1="-1.36595e-09" y1="152.5" x2="952" y2="152.5" stroke="#E6909A"/>
<line opacity="0.3" x1="-1.36595e-09" y1="125.5" x2="952" y2="125.5" stroke="#E6909A"/>
<line opacity="0.3" x1="-1.36595e-09" y1="98.5" x2="952" y2="98.5" stroke="#E6909A"/>
<line opacity="0.3" x1="-1.36595e-09" y1="71.5" x2="952" y2="71.5" stroke="#E6909A"/>
<line opacity="0.3" x1="-1.36595e-09" y1="44.5" x2="952" y2="44.5" stroke="#E6909A"/>
<line opacity="0.3" x1="-1.36595e-09" y1="17.5" x2="952" y2="17.5" stroke="#E6909A"/>
<line opacity="0.3" x1="-2.57123e-09" y1="416.5" x2="952" y2="416.5" stroke="#E6909A"/>
<line opacity="0.3" x1="-2.57123e-09" y1="389.5" x2="952" y2="389.5" stroke="#E6909A"/>
<line opacity="0.3" x1="-2.57123e-09" y1="362.5" x2="952" y2="362.5" stroke="#E6909A"/>
<line opacity="0.3" x1="-2.57123e-09" y1="335.5" x2="952" y2="335.5" stroke="#E6909A"/>
<line opacity="0.3" x1="-2.57123e-09" y1="308.5" x2="952" y2="308.5" stroke="#E6909A"/>
<line opacity="0.3" x1="-2.57123e-09" y1="281.5" x2="952" y2="281.5" stroke="#E6909A"/>
<line opacity="0.3" x1="-2.57123e-09" y1="254.5" x2="952" y2="254.5" stroke="#E6909A"/>
<line opacity="0.3" x1="-2.57123e-09" y1="227.5" x2="952" y2="227.5" stroke="#E6909A"/>
<line opacity="0.3" x1="-2.57123e-09" y1="200.5" x2="952" y2="200.5" stroke="#E6909A"/>
<line opacity="0.3" x1="-2.57123e-09" y1="173.5" x2="952" y2="173.5" stroke="#E6909A"/>
<line opacity="0.3" x1="-2.57123e-09" y1="146.5" x2="952" y2="146.5" stroke="#E6909A"/>
<line opacity="0.3" x1="-2.57123e-09" y1="119.5" x2="952" y2="119.5" stroke="#E6909A"/>
<line opacity="0.3" x1="-2.57123e-09" y1="92.5" x2="952" y2="92.5" stroke="#E6909A"/>
<line opacity="0.3" x1="-2.57123e-09" y1="65.5" x2="952" y2="65.5" stroke="#E6909A"/>
<line opacity="0.3" x1="-2.57123e-09" y1="38.5" x2="952" y2="38.5" stroke="#E6909A"/>
<line opacity="0.3" x1="-2.57123e-09" y1="11.5" x2="952" y2="11.5" stroke="#E6909A"/>
</svg>