<svg xmlns="http://www.w3.org/2000/svg" viewBox="0 0 189.05 139.38"><g id="Layer_2" data-name="Layer 2"><g id="Layer_1-2" data-name="Layer 1"><path d="M11.61,114.27H1.13c0-4.29,0-8.52,0-12.75.08-6.78-.58-13.7.5-20.33C3.51,69.79,10.48,62,21.75,59c10.9-3,20.63-.5,28.6,7.81.68.71,1.34,1.43,3.62,3.87.82-1.72,1.2-3.58,2.32-4.66,8.57-8.28,18.88-10.45,29.8-6.39,11.1,4.12,18,12.4,18.43,24.67.38,9.89.08,19.79.08,29.92h-10c0-2.73.06-5.47,0-8.21-.2-7.93.32-16-.9-23.75-1.45-9.3-10-14.72-19.44-13.82A17.54,17.54,0,0,0,58.32,85.72c-.21,7.61-.06,15.24-.07,22.86v5.58H47.86c0-9.3.11-18.37,0-27.43C47.71,78.91,44.07,73,36.92,69.79a17,17,0,0,0-18.65,2.42A16.94,16.94,0,0,0,11.6,86C11.64,95.26,11.61,104.51,11.61,114.27Z" transform="translate(-0.93)"/><path d="M133.27,31.26h10c0,7.77.21,15.35-.08,22.91-.16,4.31,1.18,6,5.63,5.72,4.62-.32,9.28-.14,13.92,0C178.34,60.32,190,72.5,190,88.21s-11.68,27.94-27.16,28.44c-15.94.52-29.07-10.9-29.44-26.56C132.93,70.71,133.27,51.31,133.27,31.26Zm21.57,38.57V70a54.78,54.78,0,0,0-8.41.14c-1.14.18-2.91,1.87-2.93,2.9-.12,6.09-.4,12.28.48,18.27a17.8,17.8,0,0,0,18.52,15.18,18.34,18.34,0,0,0,17.2-17.87c.3-9.33-6.34-17-16-18.28C160.79,70,157.8,70,154.84,69.83Z" transform="translate(-0.93)"/><path d="M120.07,99.52c-3.61-34.44-13.78-48.22-42.2-55.93C99.88,36.24,116.23,23.71,123,0,122,33.93,121,66.73,120.07,99.52Z" transform="translate(-0.93)"/><path d="M100.47,12.91a8.56,8.56,0,0,1-8.51,9,9,9,0,0,1-9.16-9,8.85,8.85,0,0,1,9-8.62A8.33,8.33,0,0,1,100.47,12.91Z" transform="translate(-0.93)"/><path d="M.93,129.34H3.19v3.74H6.06v-3.74H8.32v9.88H6.06v-4.11H3.19v4.11H.93Z" transform="translate(-0.93)"/><path d="M28.13,135.14H24.19v2.05h4.37l-.26,2H22v-9.88h6.28v2h-4.1v1.74h3.94Z" transform="translate(-0.93)"/><path d="M43.82,137.2l-.54,2H41.07l2.76-9.88h2.89l2.88,9.88H47.24l-.58-2Zm2.41-2c-.47-1.74-.82-3.09-1-4h0c-.2,1-.57,2.5-1,4Z" transform="translate(-0.93)"/><path d="M62.38,129.34h2.26v7.85h4.09l-.25,2h-6.1Z" transform="translate(-0.93)"/><path d="M82,131.37H79.55v-2h7.2v2H84.29v7.85H82Z" transform="translate(-0.93)"/><path d="M99.67,129.34h2.26v3.74h2.87v-3.74h2.26v9.88H104.8v-4.11h-2.87v4.11H99.67Z" transform="translate(-0.93)"/><path d="M128.26,136a3.64,3.64,0,0,1-3.84,3.34c-2.75,0-4.06-2.19-4.06-5s1.32-5.17,4.17-5.17a3.52,3.52,0,0,1,3.71,3.32H126a1.5,1.5,0,0,0-1.53-1.4c-1.31,0-1.79,1.41-1.79,3.15,0,1.59.4,3.2,1.83,3.2A1.53,1.53,0,0,0,126,136Z" transform="translate(-0.93)"/><path d="M143.28,137.2l-.55,2h-2.2l2.76-9.88h2.89l2.87,9.88h-2.36l-.57-2Zm2.41-2c-.48-1.74-.82-3.09-1-4h0c-.2,1-.56,2.5-.95,4Z" transform="translate(-0.93)"/><path d="M164,135.42v3.8h-2.19v-9.88h4a2.65,2.65,0,0,1,2.93,2.73,2.43,2.43,0,0,1-1.23,2.34c.45.2,1.05.78,1.05,2.5v.46a10.25,10.25,0,0,0,.12,1.85h-2.14a7.82,7.82,0,0,1-.18-2.2v-.19c0-.93-.2-1.41-1.4-1.41Zm0-1.93h1.3c.88,0,1.2-.4,1.2-1.11s-.38-1.11-1.18-1.11H164Z" transform="translate(-0.93)"/><path d="M188.22,135.14h-3.94v2.05h4.38l-.26,2h-6.3v-9.88h6.29v2h-4.11v1.74h3.94Z" transform="translate(-0.93)"/></g></g></svg>