<svg width="190" height="140" viewBox="0 0 190 140" fill="none" xmlns="http://www.w3.org/2000/svg">
<g clip-path="url(#clip0)">
<path d="M10.6795 114.27H0.199527C0.199527 109.98 0.199527 105.75 0.199527 101.52C0.279527 94.74 -0.380473 87.82 0.699527 81.19C2.57953 69.79 9.54953 62 20.8195 59C31.7195 56 41.4495 58.5 49.4195 66.81C50.0995 67.52 50.7595 68.24 53.0395 70.68C53.8595 68.96 54.2395 67.1 55.3595 66.02C63.9295 57.74 74.2395 55.57 85.1595 59.63C96.2595 63.75 103.16 72.03 103.59 84.3C103.97 94.19 103.67 104.09 103.67 114.22H93.6695C93.6695 111.49 93.7295 108.75 93.6695 106.01C93.4695 98.08 93.9895 90.01 92.7695 82.26C91.3195 72.96 82.7695 67.54 73.3295 68.44C69.0048 68.8359 64.9807 70.8221 62.0361 74.0143C59.0915 77.2064 57.4358 81.3774 57.3895 85.72C57.1795 93.33 57.3295 100.96 57.3195 108.58V114.16H46.9295C46.9295 104.86 47.0395 95.79 46.9295 86.73C46.7795 78.91 43.1395 73 35.9895 69.79C32.9876 68.3136 29.6169 67.7558 26.2994 68.1862C22.9819 68.6167 19.8652 70.0164 17.3395 72.21C15.2226 73.823 13.5156 75.9121 12.3568 78.308C11.1979 80.7039 10.6199 83.3391 10.6695 86C10.7095 95.26 10.6795 104.51 10.6795 114.27Z" fill="black"/>
<path d="M132.34 31.26H142.34C142.34 39.03 142.55 46.61 142.26 54.17C142.1 58.48 143.44 60.17 147.89 59.89C152.51 59.57 157.17 59.75 161.81 59.89C177.41 60.32 189.07 72.5 189.07 88.21C189.07 103.92 177.39 116.15 161.91 116.65C145.97 117.17 132.84 105.75 132.47 90.09C132 70.71 132.34 51.31 132.34 31.26ZM153.91 69.83V70C151.107 69.8311 148.295 69.8779 145.5 70.14C144.36 70.32 142.59 72.01 142.57 73.04C142.45 79.13 142.17 85.32 143.05 91.31C143.696 95.6905 145.951 99.6729 149.375 102.48C152.8 105.287 157.148 106.716 161.57 106.49C166.153 106.206 170.464 104.212 173.648 100.903C176.833 97.5946 178.661 93.2113 178.77 88.62C179.07 79.29 172.43 71.62 162.77 70.34C159.86 70 156.87 70 153.91 69.83Z" fill="black"/>
<path d="M119.139 99.52C115.529 65.08 105.359 51.3 76.9395 43.59C98.9495 36.24 115.299 23.71 122.069 0C121.069 33.93 120.069 66.73 119.139 99.52Z" fill="black"/>
<path d="M99.5391 12.91C99.5987 14.0664 99.423 15.2228 99.0227 16.3093C98.6224 17.3959 98.0058 18.3899 97.2102 19.2312C96.4147 20.0726 95.4567 20.7438 94.3943 21.2042C93.3319 21.6647 92.187 21.9048 91.0291 21.91C89.8338 21.9313 88.6463 21.7142 87.5358 21.2714C86.4254 20.8286 85.4142 20.1691 84.5615 19.3312C83.7087 18.4933 83.0315 17.494 82.5692 16.3915C82.1069 15.289 81.869 14.1055 81.8691 12.91C81.9295 10.5767 82.9091 8.36176 84.5947 6.74731C86.2803 5.13286 88.5354 4.24966 90.8691 4.29C92.0162 4.24241 93.1606 4.43243 94.2307 4.84812C95.3008 5.26382 96.2735 5.89622 97.0876 6.70563C97.9017 7.51504 98.5397 8.484 98.9616 9.55168C99.3835 10.6194 99.5801 11.7627 99.5391 12.91Z" fill="black"/>
</g>
<defs>
<clipPath id="clip0">
<rect width="189.05" height="139.38" fill="white"/>
</clipPath>
</defs>
</svg>
