<svg width="20" height="25" viewBox="0 0 20 25" fill="none" xmlns="http://www.w3.org/2000/svg">
<path d="M6.47066 8.21411C5.3081 9.39191 4.88207 11.5399 5.8859 13.2631C6.82528 14.8757 8.00856 16.2862 9.36073 17.4058C10.8061 18.6024 12.6075 18.0943 13.5953 16.7081L13.6063 16.7142C14.8679 17.411 16.2079 17.8886 17.5833 18.132V21.5416L17.5822 21.5416L17.5791 21.5416C8.93997 21.5563 2.40743 13.6769 2.41668 3.46297V3.45833H5.27598L5.27617 3.45984C5.48033 5.09959 5.88074 6.69594 6.46523 8.20014L6.47066 8.21411ZM17.5822 24.125H18.6667C19.265 24.125 19.75 23.5467 19.75 22.8333V17.0179C19.75 16.3778 19.3568 15.8342 18.8257 15.7402L17.9003 15.5765C16.73 15.3694 15.5906 14.9631 14.517 14.3701L13.7014 13.9197C13.2287 13.6586 12.6672 13.8356 12.3645 14.341L11.9952 14.9573C11.6716 15.4975 11.0538 15.6625 10.5965 15.2838C9.45655 14.34 8.45741 13.149 7.66544 11.7894C7.3478 11.2442 7.48618 10.5074 7.93932 10.1216L8.456 9.68167C8.87993 9.32071 9.02837 8.6511 8.80938 8.08754L8.43116 7.11417C7.9338 5.83422 7.59308 4.47584 7.41935 3.08051L7.28196 1.977C7.20312 1.34382 6.74724 0.875 6.21037 0.875H1.33334C0.735036 0.875 0.250011 1.4533 0.250011 2.16667V3.46018C0.239482 15.0935 7.73609 24.1416 17.5822 24.125Z" fill="#2E3A59"/>
</svg>
