<svg width="30" height="30" viewBox="0 0 30 30" fill="none" xmlns="http://www.w3.org/2000/svg">
<g clip-path="url(#clip0)">
<path d="M14.9823 6.95641C16.4345 6.95641 17.6117 5.7942 17.6117 4.36053C17.6117 2.92686 16.4345 1.76465 14.9823 1.76465C13.5301 1.76465 12.3529 2.92686 12.3529 4.36053C12.3529 5.7942 13.5301 6.95641 14.9823 6.95641Z" fill="black"/>
<path fill-rule="evenodd" clip-rule="evenodd" d="M25.7646 28.1488C25.4779 28.1487 25.1958 28.0774 24.9435 27.9413C24.6912 27.8051 24.4767 27.6084 24.3193 27.3688L22.0746 22.9376H14.1052C13.8751 22.9362 13.6475 22.8895 13.4354 22.8001C13.2233 22.7108 13.0309 22.5806 12.8692 22.4169C12.7075 22.2531 12.5795 22.0592 12.4928 21.846C12.406 21.6329 12.362 21.4048 12.3634 21.1746V10.7011C12.3634 9.72524 13.1434 8.93994 14.1052 8.93994C15.0634 8.93994 15.8452 9.72524 15.8452 10.7011V19.4135H23.0028C23.5834 19.4135 24.1252 19.7046 24.4446 20.1935L26.3576 24.1199L27.5117 23.647C27.7166 23.5438 27.9401 23.4825 28.169 23.4665C28.3979 23.4506 28.6277 23.4803 28.845 23.5541C29.0623 23.6278 29.2628 23.7441 29.4347 23.8961C29.6066 24.0481 29.7465 24.2327 29.8464 24.4393C30.0522 24.8569 30.0853 25.3387 29.9387 25.7806C29.7921 26.2224 29.4775 26.5888 29.0628 26.8005L26.5376 27.9635C26.2983 28.0858 26.0333 28.1494 25.7646 28.1488Z" fill="black"/>
<path fill-rule="evenodd" clip-rule="evenodd" d="M13.0252 29.954C7.844 29.954 3.62988 25.747 3.62988 20.5781C3.62988 17.5323 5.12106 14.6664 7.61812 12.9087C7.74467 12.8194 7.88762 12.7558 8.03877 12.7218C8.18993 12.6878 8.34631 12.684 8.49895 12.7105C8.65159 12.7371 8.79748 12.7935 8.92826 12.8766C9.05904 12.9597 9.17214 13.0677 9.26106 13.1946C9.35048 13.3209 9.41408 13.4636 9.4482 13.6146C9.48233 13.7655 9.4863 13.9217 9.4599 14.0742C9.43351 14.2267 9.37725 14.3725 9.29437 14.5032C9.21149 14.6339 9.10362 14.7469 8.97694 14.8358C8.05555 15.4837 7.30336 16.3435 6.78373 17.3428C6.26409 18.3422 5.99224 19.4518 5.99106 20.5781C5.99527 22.4413 6.73846 24.2266 8.05754 25.5424C9.37662 26.8581 11.1638 27.5969 13.0269 27.5964C14.9681 27.5964 16.7734 26.8252 18.1181 25.4258C18.3346 25.2002 18.6318 25.0698 18.9444 25.0634C19.257 25.0569 19.5593 25.1749 19.7849 25.3914C20.0105 25.6078 20.1408 25.9051 20.1473 26.2176C20.1537 26.5302 20.0358 26.8326 19.8193 27.0581C18.9432 27.9774 17.8888 28.7083 16.7207 29.2063C15.5525 29.7042 14.295 29.9586 13.0252 29.954Z" fill="black"/>
</g>
<defs>
<clipPath id="clip0">
<rect width="30" height="30" fill="white"/>
</clipPath>
</defs>
</svg>
