<svg width="47" height="47" viewBox="0 0 47 47" fill="none" xmlns="http://www.w3.org/2000/svg">
<path d="M23.5 0.583374C18.9675 0.583374 14.5368 1.92741 10.7682 4.44553C6.99955 6.96364 4.06226 10.5427 2.32775 14.7302C0.593242 18.9177 0.139416 23.5255 1.02366 27.9709C1.90791 32.4163 4.09051 36.4996 7.29546 39.7046C10.5004 42.9095 14.5838 45.0921 19.0292 45.9764C23.4746 46.8606 28.0823 46.4068 32.2698 44.6723C36.4573 42.9378 40.0364 40.0005 42.5545 36.2319C45.0726 32.4632 46.4167 28.0325 46.4167 23.5C46.4167 20.4906 45.8239 17.5106 44.6722 14.7302C43.5206 11.9498 41.8325 9.42352 39.7045 7.29551C37.5765 5.1675 35.0502 3.47947 32.2698 2.3278C29.4894 1.17613 26.5095 0.583374 23.5 0.583374ZM29.7104 26.4563C29.9252 26.6693 30.0957 26.9228 30.212 27.2021C30.3284 27.4813 30.3883 27.7808 30.3883 28.0834C30.3883 28.3859 30.3284 28.6854 30.212 28.9647C30.0957 29.244 29.9252 29.4974 29.7104 29.7105C29.4974 29.9253 29.2439 30.0957 28.9646 30.2121C28.6854 30.3284 28.3859 30.3883 28.0833 30.3883C27.7808 30.3883 27.4813 30.3284 27.202 30.2121C26.9227 30.0957 26.6693 29.9253 26.4562 29.7105L23.5 26.7313L20.5437 29.7105C20.3307 29.9253 20.0772 30.0957 19.798 30.2121C19.5187 30.3284 19.2192 30.3883 18.9167 30.3883C18.6141 30.3883 18.3146 30.3284 18.0353 30.2121C17.7561 30.0957 17.5026 29.9253 17.2896 29.7105C17.0748 29.4974 16.9043 29.244 16.7879 28.9647C16.6716 28.6854 16.6117 28.3859 16.6117 28.0834C16.6117 27.7808 16.6716 27.4813 16.7879 27.2021C16.9043 26.9228 17.0748 26.6693 17.2896 26.4563L20.2687 23.5L17.2896 20.5438C16.858 20.1123 16.6156 19.527 16.6156 18.9167C16.6156 18.3064 16.858 17.7212 17.2896 17.2896C17.7211 16.8581 18.3064 16.6157 18.9167 16.6157C19.5269 16.6157 20.1122 16.8581 20.5437 17.2896L23.5 20.2688L26.4562 17.2896C26.8878 16.8581 27.4731 16.6157 28.0833 16.6157C28.6936 16.6157 29.2789 16.8581 29.7104 17.2896C30.1419 17.7212 30.3844 18.3064 30.3844 18.9167C30.3844 19.527 30.1419 20.1123 29.7104 20.5438L26.7312 23.5L29.7104 26.4563Z" fill="black"/>
</svg>
