<svg xmlns="http://www.w3.org/2000/svg" xmlns:xlink="http://www.w3.org/1999/xlink" version="1.1" x="0px" y="0px" viewBox="0 0 512 640" style="enable-background:new 0 0 512 512;" xml:space="preserve"><g><g><g><g><path d="M156,256c-55.14,0-100-44.859-100-100S100.86,56,156,56s100,44.859,100,100S211.14,256,156,256z       M156,76c-44.112,0-80,35.888-80,80s35.888,80,80,80s80-35.888,80-80S200.112,76,156,76z"/></g><g><rect x="146" y="66" width="20" height="30"/></g><g><rect x="146" y="216" width="20" height="30"/></g><g><rect x="216" y="146" width="30" height="20"/></g><g><rect x="66" y="146" width="30" height="20"/></g><g><rect x="199.033" y="87.967" transform="matrix(0.7071 0.7071 -0.7071 0.7071 134.0405 -117.6529)" width="20" height="30"/></g><g><rect x="92.967" y="194.033" transform="matrix(0.7071 0.7071 -0.7071 0.7071 177.9748 -11.5817)" width="20" height="30"/></g><g><rect x="194.033" y="199.033" transform="matrix(0.7071 0.7071 -0.7071 0.7071 209.0297 -86.5842)" width="30" height="20"/></g><g><rect x="87.967" y="92.967" transform="matrix(0.7071 0.7071 -0.7071 0.7071 102.9652 -42.6504)" width="30" height="20"/></g><g><polygon points="166,166 126,166 126,146 146,146 146,116 166,116     "/></g><g><path d="M156,346c-33.084,0-60-26.916-60-60c0-3.83,0.375-7.699,1.113-11.499l19.633,3.815      C116.251,280.862,116,283.447,116,286c0,22.056,17.944,40,40,40s40-17.944,40-40c0-2.553-0.251-5.138-0.746-7.684l19.633-3.815      c0.738,3.8,1.113,7.669,1.113,11.499C216,319.084,189.084,346,156,346z"/></g><g><path d="M156,296c-77.196,0-140-62.804-140-140S78.804,16,156,16s140,62.804,140,140S233.196,296,156,296z       M156,36C89.832,36,36,89.832,36,156s53.832,120,120,120s120-53.832,120-120S222.168,36,156,36z"/></g><g><path d="M440.706,346c-31.006,0-55.294-35.141-55.294-80s24.288-80,55.294-80S496,221.141,496,266      S471.712,346,440.706,346z M440.706,206c-19.131,0-35.294,27.477-35.294,60s16.163,60,35.294,60S476,298.523,476,266      S459.837,206,440.706,206z"/></g><g><path d="M221,496c-41.355,0-75-33.645-75-75v-85h20v85c0,30.327,24.673,55,55,55s55-24.673,55-55v-85      c0-22.056,17.944-40,40-40s40,17.944,40,40v62.647C356,419.244,372.756,436,393.353,436s37.354-16.756,37.354-37.353V336h20      v62.647c0,31.624-25.729,57.353-57.354,57.353C361.729,456,336,430.271,336,398.647V336c0-11.028-8.972-20-20-20      s-20,8.972-20,20v85C296,462.355,262.355,496,221,496z"/></g></g></g></g><text x="0" y="527" fill="#000000" font-size="5px" font-weight="bold" font-family="'Helvetica Neue', Helvetica, Arial-Unicode, Arial, Sans-serif">Created by Icon Market</text><text x="0" y="532" fill="#000000" font-size="5px" font-weight="bold" font-family="'Helvetica Neue', Helvetica, Arial-Unicode, Arial, Sans-serif">from the Noun Project</text></svg>